<svg xmlns="http://www.w3.org/2000/svg" viewBox="0 0 2587.56 1031.23"><defs><style>.cls-1,.cls-5,.cls-6,.cls-7{fill:#fff;}.cls-2{fill:#231f20;stroke:#000;}.cls-2,.cls-3,.cls-4{stroke-miterlimit:10;}.cls-3{fill:none;}.cls-3,.cls-4{stroke:#b6b8ba;stroke-width:5px;}.cls-4{fill:#b6b8ba;}.cls-5{font-size:30px;}.cls-5,.cls-6,.cls-7{font-family:MyriadPro-Regular, Myriad Pro;}.cls-6{font-size:66px;}.cls-7{font-size:41px;}</style></defs><title>Asset 2</title><g id="Layer_2" data-name="Layer 2"><g id="Layer_1-2" data-name="Layer 1"><rect class="cls-1" width="2587.56" height="1031.23"/><path class="cls-2" d="M1786.07,529.55q.2-6.94.2-13.94t-.2-13.93h-13.94q-.2-6.76-.58-13.46l13.88-1.22q-.4-6.93-1-13.9T1783,459.24l-13.84,1.21q-.78-6.7-1.75-13.36l13.67-2.41q-1-6.89-2.22-13.76t-2.62-13.69l-13.63,2.4q-1.36-6.61-2.91-13.16l13.36-3.58q-1.61-6.76-3.41-13.51c-1.2-4.51-2.48-9-3.8-13.41l-13.35,3.57q-1.93-6.46-4-12.85l13-4.73q-2.19-6.6-4.57-13.16t-5-13l-13,4.73q-2.51-6.28-5.17-12.46l12.53-5.84q-2.76-6.37-5.71-12.72t-6.07-12.54L1722,302.79q-3-6-6.23-12l12-6.93q-3.3-6.11-6.79-12.17t-7.15-12l-12,6.94q-3.54-5.73-7.24-11.36l11.37-8q-3.83-5.8-7.82-11.53t-8.16-11.3l-11.4,8q-4-5.41-8.21-10.68l10.66-9q-4.31-5.44-8.8-10.8t-9.11-10.55l-10.68,9q-4.48-5-9.1-9.93l9.86-9.86q-4.79-5-9.71-10t-10-9.71l-9.86,9.86q-4.9-4.62-9.93-9.11l9-10.68q-5.19-4.6-10.55-9.11t-10.8-8.8l-9,10.67q-5.28-4.18-10.68-8.22l8-11.39q-5.58-4.15-11.3-8.16t-11.53-7.83l-8,11.38q-5.62-3.7-11.36-7.25l6.94-12q-5.92-3.64-12-7.14t-12.17-6.8l-6.92,12q-5.94-3.19-12-6.23l5.85-12.55q-6.21-3.11-12.54-6.07t-12.72-5.71l-5.84,12.53q-6.18-2.67-12.45-5.16l4.72-13c-4.3-1.7-8.64-3.36-13-5s-8.77-3.12-13.17-4.58l-4.72,13c-4.26-1.4-8.55-2.76-12.86-4l3.58-13.35q-6.66-2-13.41-3.8t-13.52-3.41l-3.58,13.37c-4.36-1-8.75-2-13.16-2.91l2.4-13.64q-6.79-1.4-13.68-2.62c-4.59-.81-9.18-1.54-13.76-2.22l-2.41,13.67q-6.66-1-13.37-1.74l1.21-13.85c-4.6-.53-9.22-1-13.86-1.41s-9.28-.74-13.9-1l-1.21,13.88q-6.72-.37-13.46-.57v-14q-6.95-.2-13.94-.2t-13.94.2V42q-6.75.19-13.45.57l-1.22-13.88c-4.62.28-9.26.61-13.9,1s-9.26.88-13.86,1.41L1243.37,45q-6.72.78-13.37,1.74l-2.41-13.67c-4.58.68-9.16,1.41-13.76,2.22s-9.15,1.69-13.68,2.62l2.4,13.64c-4.41.9-8.8,1.88-13.16,2.91l-3.58-13.37q-6.76,1.61-13.52,3.41t-13.41,3.8l3.58,13.35c-4.31,1.29-8.6,2.65-12.86,4l-4.72-13q-6.6,2.19-13.17,4.58c-4.38,1.59-8.72,3.25-13,5l4.72,13q-6.27,2.49-12.45,5.16l-5.84-12.53q-6.37,2.76-12.72,5.71t-12.54,6.07l5.85,12.55q-6,3-12,6.23l-6.92-12q-6.12,3.31-12.17,6.8t-12,7.14l6.94,12q-5.73,3.54-11.36,7.25l-8-11.38q-5.79,3.82-11.53,7.83t-11.3,8.16l8,11.39q-5.4,4-10.68,8.22l-8.95-10.67q-5.45,4.31-10.8,8.8t-10.55,9.11l9,10.68q-5,4.48-9.93,9.11L963.64,161q-5,4.77-10,9.71t-9.71,10l9.86,9.86q-4.62,4.9-9.1,9.93l-10.68-9q-4.62,5.2-9.11,10.55t-8.8,10.8l10.66,9q-4.17,5.28-8.21,10.68l-11.4-8q-4.14,5.56-8.15,11.3t-7.83,11.53l11.37,8q-3.7,5.63-7.24,11.36l-12-6.94q-3.64,5.93-7.15,12t-6.79,12.17l12,6.93q-3.21,5.93-6.23,12l-12.55-5.85q-3.12,6.21-6.07,12.54t-5.71,12.72L863.31,328q-2.67,6.18-5.17,12.46l-13-4.73q-2.56,6.47-5,13T835.63,362l13,4.73q-2.11,6.39-4.05,12.85L831.21,376c-1.32,4.44-2.6,8.9-3.8,13.41s-2.34,9-3.41,13.51l13.36,3.58c-1,4.37-2,8.75-2.91,13.16l-13.63-2.4q-1.4,6.81-2.62,13.69T816,444.68l13.67,2.41q-1,6.65-1.75,13.36l-13.84-1.21q-.79,6.9-1.42,13.86t-1,13.9l13.88,1.22q-.37,6.7-.58,13.46H811q-.19,6.94-.2,13.93t.2,13.94h13.94q.2,6.75.58,13.46l-13.88,1.21q.42,6.94,1,13.9T814.06,572l13.84-1.21q.78,6.71,1.75,13.36L816,586.55q1,6.87,2.22,13.76T820.82,614l13.63-2.41c.91,4.41,1.89,8.8,2.91,13.16L824,628.34q1.61,6.75,3.41,13.51c1.2,4.5,2.48,9,3.8,13.41l13.35-3.58q1.94,6.47,4.05,12.86l-13,4.73q2.19,6.59,4.57,13.16t5,13l13-4.73q2.5,6.27,5.17,12.45L850.78,709q2.76,6.38,5.71,12.71c2,4.23,4,8.4,6.07,12.55l12.55-5.85q3,6,6.23,11.95l-12,6.92q3.3,6.12,6.79,12.17t7.15,12l12-6.94q3.54,5.73,7.24,11.36l-11.37,8q3.83,5.8,7.83,11.53t8.15,11.3l11.4-8q4,5.4,8.21,10.68l-10.66,9q4.3,5.45,8.8,10.81T934,839.67l10.68-9q4.48,5,9.1,9.93l-9.86,9.86q4.79,5.06,9.71,10t10,9.71l9.86-9.86q4.9,4.62,9.93,9.11l-9,10.67q5.19,4.62,10.55,9.11t10.8,8.81l8.95-10.67q5.28,4.18,10.68,8.21l-8,11.4q5.58,4.14,11.3,8.16T1030.3,923l8-11.38q5.63,3.71,11.36,7.25l-6.94,12q5.93,3.63,12,7.14t12.17,6.79l6.92-12q5.94,3.2,12,6.23l-5.85,12.54q6.21,3.12,12.54,6.08t12.72,5.7l5.84-12.53q6.18,2.67,12.45,5.17l-4.72,13q6.45,2.57,13,5t13.17,4.58l4.72-13q6.39,2.12,12.86,4.06l-3.58,13.34q6.66,2,13.41,3.81t13.52,3.41l3.58-13.37q6.54,1.54,13.16,2.91l-2.4,13.64c4.53.93,9.09,1.81,13.68,2.61s9.18,1.55,13.76,2.23l2.41-13.68q6.66,1,13.37,1.75l-1.21,13.84q6.9.81,13.86,1.42t13.9,1l1.22-13.88q6.7.39,13.45.58v13.94q6.95.2,13.94.2t13.94-.2V989.21q6.75-.19,13.46-.58l1.21,13.88q6.93-.4,13.9-1t13.86-1.42l-1.21-13.84q6.72-.78,13.37-1.75l2.41,13.68q6.87-1,13.76-2.23c4.59-.8,9.15-1.68,13.68-2.61l-2.4-13.64q6.62-1.37,13.16-2.91l3.58,13.37q6.76-1.62,13.52-3.41t13.41-3.81l-3.58-13.34q6.47-1.94,12.86-4.06l4.72,13q6.6-2.19,13.17-4.58t13-5l-4.72-13q6.27-2.5,12.45-5.17l5.84,12.53q6.38-2.76,12.72-5.7t12.54-6.08L1511.35,939q6-3,12-6.23l6.92,12q6.12-3.3,12.17-6.79t12-7.14l-6.94-12q5.73-3.55,11.36-7.25l8,11.38q5.79-3.83,11.53-7.83t11.3-8.16l-8-11.4q5.4-4,10.68-8.21l9,10.67q5.44-4.32,10.8-8.81t10.55-9.11l-9-10.68q5-4.47,9.93-9.1l9.86,9.86q5-4.77,10-9.71t9.71-10l-9.86-9.86q4.62-4.9,9.1-9.93l10.68,9q4.62-5.19,9.11-10.54t8.8-10.81l-10.66-9q4.17-5.28,8.21-10.68l11.4,8q4.14-5.58,8.16-11.3t7.82-11.53l-11.37-8q3.7-5.62,7.24-11.36l12,6.94q3.65-5.91,7.15-12t6.79-12.17l-12-6.92q3.21-5.92,6.23-11.95l12.55,5.85c2.08-4.15,4.1-8.32,6.07-12.55s3.87-8.46,5.71-12.71l-12.53-5.85q2.67-6.18,5.17-12.45l13,4.73q2.56-6.47,5-13t4.57-13.16l-13-4.73q2.11-6.39,4-12.86l13.35,3.58c1.32-4.44,2.6-8.91,3.8-13.41s2.34-9,3.41-13.51l-13.36-3.59q1.54-6.54,2.91-13.16l13.63,2.41q1.41-6.81,2.62-13.69t2.22-13.76l-13.67-2.41q1-6.66,1.75-13.36L1783,572q.8-6.9,1.42-13.87t1-13.9L1771.55,543q.38-6.71.58-13.46Zm-487.54,233.8c-136.82,0-247.74-110.91-247.74-247.74s110.92-247.74,247.74-247.74,247.74,110.92,247.74,247.74S1435.35,763.35,1298.53,763.35Z"/><circle class="cls-3" cx="1293.89" cy="515.61" r="280.26"/><path class="cls-4" d="M1293.89,258.58c-142,0-257,115.08-257,257s115.08,257,257,257,257-115.08,257-257S1435.84,258.58,1293.89,258.58Zm118.3,111.65.11-.14h0a19.71,19.71,0,0,1,29.88.69c5.11,5.34,31,33.91,45.84,79.29a19.07,19.07,0,0,1,.88,2.75l0,.07h0a19.73,19.73,0,0,1-16.49,24h0l-113.17,16h0a19.73,19.73,0,0,1-18.57-31.28h0l0-.06.26-.33L1410.79,372A20,20,0,0,1,1412.19,370.23ZM1247.8,311.64c7.18-1.75,44.86-9.87,91.6-.05a18.85,18.85,0,0,1,2.82.61h.07a19.71,19.71,0,0,1,12.52,26.28h0l-42.75,106h0a19.73,19.73,0,0,1-36.37.44h0l0-.07c-.05-.13-.1-.26-.16-.39l-42.31-105a19.2,19.2,0,0,1-.85-2.1l-.06-.17h0a19.7,19.7,0,0,1,15.53-25.54ZM1099.4,450.42c2.07-7.1,13.87-43.78,45.75-79.35a18,18,0,0,1,1.94-2.14l0-.05h0a19.73,19.73,0,0,1,29,2.29h0l70.42,90h0a19.73,19.73,0,0,1-17.8,31.72h-.08l-.42-.06L1116.17,477a21.75,21.75,0,0,1-2.25-.32l-.17,0h0a19.71,19.71,0,0,1-14.34-26.22Zm76,198.46-.11.13h0a19.36,19.36,0,0,1-4.78,3.88,19.72,19.72,0,0,1-25.09-4.56c-5.11-5.35-31-33.91-45.85-79.3a19.53,19.53,0,0,1-.88-2.75l0-.06h0a19.72,19.72,0,0,1,16.5-24h0l113.16-16h0a19.73,19.73,0,0,1,18.57,31.28h0l-.05.06-.26.33-69.8,89.16A18.37,18.37,0,0,1,1175.37,648.88Zm164.39,58.58c-7.18,1.76-44.85,9.88-91.59.06a20.33,20.33,0,0,1-2.83-.61l-.06,0h0a19.71,19.71,0,0,1-12.52-26.28h0l42.75-106h0a19.74,19.74,0,0,1,36.38-.44h0l0,.07c.06.13.11.26.16.39l42.31,105a20.21,20.21,0,0,1,.85,2.11l.07.16h0a19.69,19.69,0,0,1-15.53,25.53Zm148.41-138.77c-2.08,7.1-13.88,43.78-45.75,79.35a20.91,20.91,0,0,1-1.94,2.14l0,.05h0a19.72,19.72,0,0,1-29-2.29h0l-70.42-90h0a19.73,19.73,0,0,1,17.8-31.72h0l.08,0c.14,0,.28,0,.41.06l112.11,15.86a21,21,0,0,1,2.25.32l.18,0h0a19.48,19.48,0,0,1,5.75,2.21A19.73,19.73,0,0,1,1488.17,568.69Z"/><text class="cls-5" transform="translate(1038.29 354.19) rotate(-55.38)">M</text><text class="cls-5" transform="translate(1051.7 334.9) rotate(-51.48)">A</text><text class="cls-5" transform="matrix(0.67, -0.75, 0.75, 0.67, 1062.71, 321.07)">X</text><text class="cls-5" transform="translate(1074.05 308.5) rotate(-46.08)"> </text><text class="cls-5" transform="matrix(0.72, -0.69, 0.69, 0.72, 1078.27, 303.99)">P</text><text class="cls-5" transform="matrix(0.75, -0.66, 0.66, 0.75, 1089.56, 293.07)">R</text><text class="cls-5" transform="matrix(0.79, -0.62, 0.62, 0.79, 1101.55, 282.65)">E</text><text class="cls-5" transform="matrix(0.81, -0.58, 0.58, 0.81, 1112.97, 273.67)">S</text><text class="cls-5" transform="translate(1124.81 265.24) rotate(-32.66)">S</text><text class="cls-5" transform="translate(1137 257.34) rotate(-29.47)">U</text><text class="cls-5" transform="translate(1153.68 247.96) rotate(-26.14)">R</text><text class="cls-5" transform="translate(1167.94 240.97) rotate(-23.24)">E</text><text class="cls-5" transform="translate(1181.37 235.28) rotate(-21.26)"> </text><text class="cls-5" transform="translate(1187.1 232.96) rotate(-19.22)">3</text><text class="cls-5" transform="translate(1201.39 227.97) rotate(-16.32)">5</text><text class="cls-5" transform="translate(1216.03 223.76) rotate(-14.27)"> </text><text class="cls-5" transform="translate(1222 222.15) rotate(-12.18)">P</text><text class="cls-5" transform="translate(1237.34 218.85) rotate(-9.3)">S</text><text class="cls-5" transform="translate(1251.77 216.56) rotate(-7.24)">I</text><text class="cls-5" transform="translate(1258.8 215.67) rotate(-5.98)"> </text><text class="cls-5" transform="translate(1264.97 215) rotate(-4.54)">-</text><text class="cls-5" transform="matrix(1, -0.05, 0.05, 1, 1274.04, 214.3)"> </text><text class="cls-5" transform="matrix(1, -0.02, 0.02, 1, 1280.2, 213.87)">R</text><text class="cls-5" transform="matrix(1, 0.04, -0.04, 1, 1296.22, 213.55)">A</text><text class="cls-5" transform="matrix(1, 0.1, -0.1, 1, 1314.27, 214.2)">D</text><text class="cls-5" transform="matrix(0.99, 0.14, -0.14, 0.99, 1333.9, 216.3)">I</text><text class="cls-5" transform="translate(1340.82 217.18) rotate(10.63)">A</text><text class="cls-5" transform="translate(1358.59 220.56) rotate(13.69)">L</text><text class="cls-5" transform="translate(1372.17 223.94) rotate(15.62)"> </text><text class="cls-5" transform="matrix(0.96, 0.29, -0.29, 0.96, 1378.2, 225.6)">-</text><text class="cls-5" transform="translate(1386.87 228.28) rotate(18.55)"> </text><text class="cls-5" transform="translate(1392.75 230.16) rotate(20.66)">R</text><text class="cls-5" transform="translate(1407.6 235.7) rotate(24)">U</text><text class="cls-5" transform="translate(1425.06 243.51) rotate(27.34)">B</text><text class="cls-5" transform="translate(1439.27 250.88) rotate(30.25)">E</text><text class="cls-5" transform="translate(1451.82 258.2) rotate(32.94)">L</text><text class="cls-5" transform="matrix(0.81, 0.58, -0.58, 0.81, 1463.52, 265.76)">E</text><text class="cls-5" transform="translate(1475.33 274.22) rotate(38.39)">S</text><text class="cls-5" transform="translate(1486.72 283.24) rotate(41.13)">S</text><text class="cls-5" transform="matrix(0.73, 0.68, -0.68, 0.73, 1497.7, 292.92)"> </text><text class="cls-5" transform="matrix(0.71, 0.7, -0.7, 0.71, 1502.27, 297.17)">-</text><text class="cls-5" transform="translate(1508.72 303.54) rotate(45.98)"> </text><text class="cls-5" transform="translate(1513.11 307.86) rotate(48.43)">D</text><text class="cls-5" transform="translate(1526.17 322.55) rotate(52.2)">O</text><text class="cls-5" transform="matrix(0.57, 0.82, -0.82, 0.57, 1538.17, 338.11)">T</text><text class="cls-5" transform="matrix(0.54, 0.84, -0.84, 0.54, 1546.48, 350.27)"> </text><text class="cls-5" transform="translate(1549.98 355.3) rotate(60.2)">M</text><text class="cls-5" transform="translate(1561.59 375.73) rotate(64.12)">A</text><text class="cls-5" transform="translate(1569.44 392.04) rotate(67.17)">L</text><text class="cls-5" transform="translate(1574.85 404.85) rotate(69.89)">S</text><text class="cls-5" transform="translate(1579.81 418.61) rotate(71.88)"> </text><text class="cls-5" transform="matrix(0.27, 0.96, -0.96, 0.27, 1581.85, 424.43)">A</text><text class="cls-5" transform="translate(1586.75 441.83) rotate(77.46)">B</text><text class="cls-5" transform="matrix(0.16, 0.99, -0.99, 0.16, 1590.24, 457.42)">C</text><text class="cls-5" transform="translate(1593.02 474.33) rotate(83.68)">0</text><text class="cls-5" transform="matrix(0.06, 1, -1, 0.06, 1594.69, 489.38)">3</text><text class="cls-5" transform="translate(1595.57 504.53) rotate(89.07)">6</text><text class="cls-5" transform="matrix(-0.02, 1, -1, -0.02, 1595.71, 519.71)"> </text><text class="cls-5" transform="matrix(-0.05, 1, -1, -0.05, 1595.58, 525.95)">-</text><text class="cls-5" transform="translate(1595.12 535.01) rotate(94.23)"> </text><text class="cls-5" transform="matrix(-0.1, 0.99, -0.99, -0.1, 1594.84, 539.99)">T</text><text class="cls-5" transform="translate(1593.33 554.59) rotate(98.87)">R</text><text class="cls-5" transform="translate(1590.87 570.27) rotate(101.77)">E</text><text class="cls-5" transform="translate(1587.97 584.49) rotate(104.88)">A</text><text class="cls-5" transform="matrix(-0.32, 0.95, -0.95, -0.32, 1583.37, 601.94)">D</text><text class="cls-5" transform="translate(1576.97 620.65) rotate(110.96)"> </text><text class="cls-5" transform="translate(1574.84 626.43) rotate(113)">4</text><text class="cls-5" transform="translate(1568.82 640.4) rotate(115.04)"> </text><text class="cls-5" transform="translate(1566.29 646.04) rotate(117.14)">P</text><text class="cls-5" transform="matrix(-0.5, 0.87, -0.87, -0.5, 1559.11, 660.02)">L</text><text class="cls-5" transform="translate(1552.07 672.11) rotate(121.95)">I</text><text class="cls-5" transform="translate(1548.44 678.07) rotate(123.99)">E</text><text class="cls-5" transform="translate(1540.31 690.14) rotate(126.74)">S</text><text class="cls-5" transform="translate(1531.51 701.81) rotate(128.71)"> </text><text class="cls-5" transform="matrix(-0.65, 0.76, -0.76, -0.65, 1527.7, 706.69)">2</text><text class="cls-5" transform="translate(1517.85 718.17) rotate(133.75)">X</text><text class="cls-5" transform="translate(1506.52 730.05) rotate(136.84)">X</text><text class="cls-5" transform="matrix(-0.77, 0.64, -0.64, -0.77, 1494.57, 741.28)">X</text><text class="cls-5" transform="translate(1482 751.87) rotate(143.04)">X</text><text class="cls-5" transform="translate(1468.91 761.75) rotate(146.14)">X</text><text class="cls-5" transform="translate(1455.29 770.91) rotate(149.25)">X</text><text class="cls-5" transform="matrix(-0.88, 0.48, -0.48, -0.88, 1440.7, 779.48)"> </text><text class="cls-5" transform="translate(1435.31 782.53) rotate(153.67)">C</text><text class="cls-5" transform="translate(1420.59 789.9) rotate(157.12)">O</text><text class="cls-5" transform="matrix(-0.94, 0.33, -0.33, -0.94, 1401.78, 797.78)">R</text><text class="cls-5" transform="translate(1386.88 803.1) rotate(163.98)">D</text><text class="cls-5" transform="translate(1367.82 808.42) rotate(166.46)"> </text><text class="cls-5" transform="translate(1361.78 809.9) rotate(167.92)">-</text><text class="cls-5" transform="translate(1352.91 811.78) rotate(169.38)"> </text><text class="cls-5" transform="translate(1346.84 812.99) rotate(171.36)">S</text><text class="cls-5" transform="translate(1332.37 815.13) rotate(173.41)">I</text><text class="cls-5" transform="translate(1325.48 816.07) rotate(175.93)">D</text><text class="cls-5" transform="translate(1305.82 817.39) rotate(179.07)">E</text><text class="cls-5" transform="translate(1291.1 817.8) rotate(-177.13)">W</text><text class="cls-5" transform="translate(1267.79 816.58) rotate(-173.39)">A</text><text class="cls-5" transform="translate(1249.81 814.45) rotate(-170.36)">L</text><text class="cls-5" transform="translate(1236.08 812.13) rotate(-167.7)">L</text><text class="cls-5" transform="translate(1222.42 809.08) rotate(-165.77)"> </text><text class="cls-5" transform="translate(1216.41 807.65) rotate(-163.73)">2</text><text class="cls-5" transform="translate(1201.83 803.31) rotate(-161.68)"> </text><text class="cls-5" transform="translate(1195.93 801.45) rotate(-159.58)">P</text><text class="cls-5" transform="translate(1181.23 795.96) rotate(-156.76)">L</text><text class="cls-5" transform="matrix(-0.9, -0.43, 0.43, -0.9, 1168.4, 790.39)">I</text><text class="cls-5" transform="translate(1162.02 787.46) rotate(-152.69)">E</text><text class="cls-5" transform="translate(1149.13 780.81) rotate(-149.93)">S</text><text class="cls-5" transform="matrix(-0.85, -0.53, 0.53, -0.85, 1136.52, 773.43)"> </text><text class="cls-5" transform="translate(1131.22 770.21) rotate(-145.93)">2</text><text class="cls-5" transform="translate(1118.67 761.76) rotate(-142.9)">X</text><text class="cls-5" transform="translate(1105.57 751.88) rotate(-139.81)">X</text><text class="cls-5" transform="matrix(-0.73, -0.69, 0.69, -0.73, 1093.01, 741.29)">X</text><text class="cls-5" transform="translate(1081.05 730.05) rotate(-133.61)">X</text><text class="cls-5" transform="matrix(-0.65, -0.76, 0.76, -0.65, 1069.73, 718.19)">X</text><text class="cls-5" transform="translate(1059.03 705.71) rotate(-127.42)">X</text><text class="cls-5" transform="translate(1048.83 692.21) rotate(-125.24)"> </text><text class="cls-5" transform="translate(1045.17 687.22) rotate(-123.02)">C</text><text class="cls-5" transform="translate(1036.13 673.46) rotate(-119.59)">O</text><text class="cls-5" transform="translate(1026.13 655.71) rotate(-116.14)">R</text><text class="cls-5" transform="translate(1019.08 641.5) rotate(-112.75)">D</text><text class="cls-5" transform="translate(1011.57 623.23) rotate(-110.28)"> </text><text class="cls-5" transform="matrix(-0.32, -0.95, 0.95, -0.32, 1009.39, 617.39)">-</text><text class="cls-5" transform="matrix(-0.3, -0.95, 0.95, -0.3, 1006.48, 608.79)"> </text><text class="cls-5" transform="matrix(-0.25, -0.97, 0.97, -0.25, 1004.44, 603.03)">M</text><text class="cls-5" transform="translate(998.64 580.26) rotate(-100.55)">A</text><text class="cls-5" transform="translate(995.4 562.89) rotate(-97.31)">X</text><text class="cls-5" transform="translate(993.35 546.08) rotate(-95.12)"> </text><text class="cls-5" transform="translate(992.73 539.91) rotate(-93.22)">L</text><text class="cls-5" transform="translate(992.02 527.17) rotate(-90.93)">O</text><text class="cls-5" transform="matrix(0.06, -1, 1, 0.06, 991.82, 507.25)">A</text><text class="cls-5" transform="translate(992.82 489.23) rotate(-83.17)">D</text><text class="cls-5" transform="translate(995.31 469.64) rotate(-80.71)"> </text><text class="cls-5" transform="matrix(0.2, -0.98, 0.98, 0.2, 996.22, 463.52)">1</text><text class="cls-5" transform="matrix(0.25, -0.97, 0.97, 0.25, 999.19, 448.66)">3</text><text class="cls-5" transform="translate(1002.91 433.98) rotate(-72.88)">3</text><text class="cls-5" transform="translate(1007.45 419.48) rotate(-70.84)"> </text><text class="cls-5" transform="translate(1009.42 413.6) rotate(-68.91)">L</text><text class="cls-5" transform="matrix(0.41, -0.91, 0.91, 0.41, 1014.4, 400.62)">B</text><text class="cls-5" transform="translate(1020.91 385.98) rotate(-63.14)">S</text><text class="cls-5" transform="matrix(0.48, -0.88, 0.88, 0.48, 1027.57, 372.98)"> </text><text class="cls-5" transform="translate(1030.57 367.5) rotate(-59.71)">-</text><text class="cls-6" transform="translate(969.3 310.87) rotate(-55.08)">P</text><text class="cls-6" transform="matrix(0.65, -0.76, 0.76, 0.65, 991.81, 279.03)">2</text><text class="cls-6" transform="matrix(0.72, -0.69, 0.69, 0.72, 1016.53, 250.51)">2</text><text class="cls-6" transform="translate(1043.93 224.54) rotate(-38.15)">5</text><text class="cls-6" transform="matrix(0.84, -0.55, 0.55, 0.84, 1073.96, 201.46)">/</text><text class="cls-6" transform="matrix(0.88, -0.48, 0.48, 0.88, 1096.24, 186.72)">5</text><text class="cls-6" transform="translate(1129.48 168.88) rotate(-22.85)">5</text><text class="cls-6" transform="translate(1164.29 154.38) rotate(-17.05)">R</text><text class="cls-6" transform="translate(1201.99 143.06) rotate(-11.25)">1</text><text class="cls-6" transform="translate(1239.07 135.89) rotate(-5.6)">2</text><text class="cls-6" transform="matrix(1, -0.02, 0.02, 1, 1276.66, 132.66)">7</text><text class="cls-6" transform="translate(1314.65 132.88) rotate(4.11)"> </text><text class="cls-6" transform="translate(1332.79 133.97) rotate(8.29)">9</text><text class="cls-6" transform="translate(1370.11 139.61) rotate(13.96)">5</text><text class="cls-6" transform="translate(1406.64 148.64) rotate(20.31)">H</text><text class="cls-6" transform="matrix(0.9, 0.43, -0.43, 0.9, 1450.48, 165.71)"> </text><text class="cls-6" transform="translate(1467.02 172.66) rotate(30.81)">M</text><text class="cls-6" transform="matrix(0.79, 0.62, -0.62, 0.79, 1515.3, 202.24)">+</text><text class="cls-6" transform="matrix(0.72, 0.7, -0.7, 0.72, 1548.97, 229.24)">S</text><text class="cls-6" transform="matrix(0.67, 0.75, -0.75, 0.67, 1574.98, 255.15)"> </text><text class="cls-6" transform="matrix(0.59, 0.81, -0.81, 0.59, 1587.49, 268.01)">M</text><text class="cls-6" transform="matrix(0.48, 0.88, -0.88, 0.48, 1620.08, 313.52)">A</text><text class="cls-6" transform="matrix(0.37, 0.93, -0.93, 0.37, 1641.21, 352.21)">N</text><text class="cls-6" transform="matrix(0.26, 0.97, -0.97, 0.26, 1658.58, 395.95)">U</text><text class="cls-6" transform="translate(1670.09 440.98) rotate(81.25)">F</text><text class="cls-6" transform="translate(1675.03 471.57) rotate(86.48)">A</text><text class="cls-6" transform="matrix(-0.05, 1, -1, -0.05, 1677.48, 514.68)">C</text><text class="cls-6" transform="translate(1674.98 558.53) rotate(98.8)">T</text><text class="cls-6" transform="translate(1669.45 594.71) rotate(105.04)">U</text><text class="cls-6" transform="translate(1657 639.44) rotate(111.49)">R</text><text class="cls-6" transform="matrix(-0.46, 0.89, -0.89, -0.46, 1642.32, 675.99)">E</text><text class="cls-6" transform="translate(1625.6 708.28) rotate(122.85)">R</text><text class="cls-6" transform="matrix(-0.6, 0.8, -0.8, -0.6, 1603.65, 741.25)"> </text><text class="cls-6" transform="matrix(-0.65, 0.76, -0.76, -0.65, 1594.45, 753.81)">T</text><text class="cls-6" transform="matrix(-0.73, 0.69, -0.69, -0.73, 1570.36, 781.47)">R</text><text class="cls-6" transform="matrix(-0.79, 0.61, -0.61, -0.79, 1541.58, 808.4)">E</text><text class="cls-6" transform="translate(1512.94 830.67) rotate(148.14)">A</text><text class="cls-6" transform="matrix(-0.91, 0.42, -0.42, -0.91, 1475.44, 853.85)">D</text><text class="cls-6" transform="matrix(-0.96, 0.29, -0.29, -0.96, 1432.51, 874.06)">W</text><text class="cls-6" transform="translate(1375.4 890.48) rotate(170.21)">E</text><text class="cls-6" transform="matrix(-1, 0.07, -0.07, -1, 1339.61, 896.66)">A</text><text class="cls-6" transform="translate(1295.52 899.24) rotate(-177.65)">R</text><text class="cls-6" transform="matrix(-0.99, -0.12, 0.12, -0.99, 1255.94, 897.06)"> </text><text class="cls-6" transform="translate(1237.65 894.82) rotate(-170.6)"> </text><text class="cls-6" transform="translate(1219.52 891.71) rotate(-167.84)"> </text><text class="cls-6" transform="matrix(-0.97, -0.26, 0.26, -0.97, 1201.54, 887.73)"> </text><text class="cls-7" transform="matrix(-0.95, -0.31, 0.31, -0.95, 1183.85, 882.99)">2</text><text class="cls-7" transform="translate(1161.6 875.59) rotate(-158.25)">2</text><text class="cls-7" transform="translate(1139.87 866.84) rotate(-154.73)">0</text><text class="cls-7" transform="matrix(-0.88, -0.47, 0.47, -0.88, 1118.61, 856.58)"> </text><text class="cls-7" transform="matrix(-0.86, -0.5, 0.5, -0.86, 1110.05, 852.16)">T</text><text class="cls-7" transform="translate(1090.38 840.65) rotate(-146.26)">R</text><text class="cls-7" transform="translate(1069.93 826.95) rotate(-142.37)">A</text><text class="cls-7" transform="translate(1048.75 810.52) rotate(-138.48)">C</text><text class="cls-7" transform="translate(1028.44 792.31) rotate(-134.68)">T</text><text class="cls-7" transform="matrix(-0.67, -0.74, 0.74, -0.67, 1012.44, 775.87)">I</text><text class="cls-7" transform="matrix(-0.63, -0.78, 0.78, -0.63, 1004.09, 766.9)">O</text><text class="cls-7" transform="matrix(-0.57, -0.82, 0.82, -0.57, 985.05, 743.09)">N</text><text class="cls-7" transform="translate(968.64 718.59) rotate(-121.38)"> </text><text class="cls-7" transform="translate(962.67 709.09) rotate(-118.47)">A</text><text class="cls-7" transform="translate(949.75 684.69) rotate(-115.56)"> </text><text class="cls-7" transform="translate(945.51 676.05) rotate(-113.24)">T</text><text class="cls-7" transform="matrix(-0.34, -0.94, 0.94, -0.34, 936.58, 655.08)">E</text><text class="cls-7" transform="translate(928.82 634.03) rotate(-105.48)">M</text><text class="cls-7" transform="matrix(-0.19, -0.98, 0.98, -0.19, 919.73, 600.04)">P</text><text class="cls-7" transform="translate(915.19 576.24) rotate(-97.52)">E</text><text class="cls-7" transform="matrix(-0.07, -1, 1, -0.07, 912.28, 553.86)">R</text><text class="cls-7" transform="translate(910.76 529.16) rotate(-90.93)">A</text><text class="cls-7" transform="translate(910.57 504.92) rotate(-86.93)">T</text><text class="cls-7" transform="translate(911.76 482.22) rotate(-83.09)">U</text><text class="cls-7" transform="translate(915.38 453.6) rotate(-79.11)">R</text><text class="cls-7" transform="matrix(0.25, -0.97, 0.97, 0.25, 920.11, 429.61)">E</text><text class="cls-7" transform="translate(925.96 407.6) rotate(-73.01)"> </text><text class="cls-7" transform="matrix(0.34, -0.94, 0.94, 0.34, 929.1, 396.85)">A</text></g></g></svg>